<?xml version="1.0" standalone="no"?>
<!DOCTYPE svg PUBLIC "-//W3C//DTD SVG 20010904//EN"
 "http://www.w3.org/TR/2001/REC-SVG-20010904/DTD/svg10.dtd">
<svg version="1.0" xmlns="http://www.w3.org/2000/svg"
 width="960.000000pt" height="960.000000pt" viewBox="0 0 960.000000 960.000000"
 preserveAspectRatio="xMidYMid meet">
<metadata>
Created by potrace 1.14, written by Peter Selinger 2001-2017
</metadata>
<g transform="translate(0.000000,960.000000) scale(0.100000,-0.100000)"
fill="#000000" stroke="none">
<path d="M5692 8854 c3 -5 2 -19 -3 -32 -8 -20 -15 -23 -47 -21 -44 3 -62 -5
-62 -30 0 -30 -18 -38 -70 -31 -57 7 -72 1 -75 -31 -1 -13 -3 -29 -4 -35 -1
-7 -37 -9 -110 -6 l-110 5 -3 -44 -3 -44 -70 -5 -70 -5 -3 -40 c-5 -54 -17
-65 -68 -65 -42 0 -44 -1 -44 -29 0 -29 0 -29 -72 -35 -40 -4 -91 -7 -113 -9
l-40 -2 0 -280 0 -280 -45 -5 c-43 -5 -45 -7 -50 -40 -5 -34 -7 -35 -55 -40
l-50 -5 -3 -47 -3 -46 -72 -9 -72 -8 0 -85 0 -85 46 -3 46 -3 7 -76 c3 -42 6
-100 6 -129 l0 -53 -37 -6 c-21 -4 -45 -7 -53 -8 -11 -2 -16 -19 -18 -75 -3
-79 -2 -78 -82 -84 l-35 -3 0 -70 0 -70 75 0 75 0 3 77 3 77 67 3 67 3 3 73 3
72 49 0 49 0 3 78 c3 74 4 77 29 80 41 5 50 -30 50 -202 0 -83 2 -222 4 -310
5 -143 3 -160 -12 -172 -22 -16 -80 -18 -85 -3 -2 6 -20 11 -39 12 l-35 1 -3
95 c-1 53 -6 100 -11 105 -4 4 -40 5 -79 1 l-71 -7 -1 -37 c-2 -92 3 -177 11
-185 4 -4 23 -11 42 -15 l33 -8 -35 -16 c-34 -15 -34 -16 -12 -23 18 -5 20 -9
10 -15 -9 -6 -9 -9 -1 -9 6 0 15 5 18 10 5 8 11 7 21 -1 12 -9 14 -5 14 25 0
20 3 36 8 36 9 0 3 -152 -6 -162 -4 -4 -6 10 -4 32 2 22 0 40 -6 40 -5 0 -8
-13 -6 -29 2 -19 -2 -31 -12 -35 -10 -4 -13 -2 -8 7 5 9 4 9 -7 0 -7 -7 -21
-13 -31 -13 -11 0 -18 -7 -18 -19 0 -10 -7 -22 -16 -25 -10 -4 -14 -13 -10
-22 3 -9 -4 -25 -20 -39 -14 -13 -23 -28 -20 -33 7 -12 -17 -22 -50 -22 -19 0
-24 -5 -24 -26 0 -32 -32 -124 -42 -124 -4 0 -13 9 -20 20 -7 11 -16 20 -21
20 -4 0 -3 -9 3 -20 6 -11 7 -20 3 -20 -5 0 -7 -18 -5 -40 3 -26 0 -40 -8 -40
-6 0 -8 5 -4 13 5 8 2 8 -9 -2 -9 -7 -17 -10 -17 -6 0 4 -6 2 -14 -4 -10 -8
-13 -23 -9 -47 5 -31 3 -34 -18 -34 -19 0 -21 2 -9 10 13 8 13 10 -2 10 -9 0
-20 -5 -23 -11 -4 -6 -12 -8 -19 -6 -6 2 -20 -4 -30 -14 -13 -13 -15 -19 -6
-19 7 0 11 -2 8 -5 -8 -8 -39 6 -33 15 7 11 -37 48 -65 55 -25 6 -25 6 -20
-52 5 -57 6 -58 35 -58 30 0 30 -1 35 -65 l5 -65 75 0 75 0 5 -85 5 -85 141 3
141 3 6 -83 c4 -46 7 -107 7 -135 0 -49 -2 -53 -27 -58 -41 -9 -58 -20 -62
-41 -4 -24 -30 -54 -47 -54 -8 0 -20 -13 -28 -29 -9 -16 -29 -33 -45 -39 -24
-9 -40 -25 -67 -70 -1 -1 -12 -5 -24 -7 -13 -2 -30 -11 -39 -18 -9 -8 -22 -12
-28 -10 -9 3 -13 -7 -13 -32 0 -20 -7 -49 -16 -65 -10 -17 -14 -35 -10 -46 4
-11 7 -21 6 -23 -1 -2 4 -7 10 -11 9 -6 9 -13 1 -29 -14 -25 -38 -27 -62 -5
-15 13 -24 15 -46 6 -31 -12 -135 -27 -170 -25 -15 1 -20 -3 -19 -15 3 -17 6
-19 51 -21 17 -1 25 -7 25 -18 0 -15 2 -16 10 -3 8 12 10 12 10 1 0 -8 3 -11
6 -8 4 3 16 0 27 -8 12 -8 43 -18 69 -21 26 -4 46 -9 44 -13 -3 -3 26 -8 62
-10 129 -8 144 -6 162 17 10 12 28 22 40 22 13 0 27 11 38 30 9 16 27 32 39
35 13 3 23 12 23 20 0 18 58 105 71 105 5 0 9 7 9 16 0 9 11 25 26 36 14 11
23 23 20 26 -7 6 73 54 90 55 6 0 9 12 7 26 -4 21 -2 23 6 11 7 -9 11 -10 11
-3 0 6 9 15 20 18 11 4 18 11 15 16 -4 5 6 10 22 10 17 1 21 3 11 6 -22 5 -24
23 -3 23 9 0 15 9 15 25 0 14 6 25 13 25 13 0 37 44 37 68 0 7 5 10 10 7 17
-11 60 37 60 68 0 15 9 40 20 56 12 15 22 37 23 49 1 12 7 22 13 22 7 0 19 2
26 5 12 5 13 -71 10 -482 -3 -348 -8 -490 -16 -495 -17 -11 -66 -10 -66 2 0 6
-7 10 -15 10 -8 0 -15 9 -15 20 0 25 17 26 23 3 7 -25 4 383 -4 492 -3 50 -4
-36 -3 -190 3 -196 0 -275 -7 -262 -6 9 -12 105 -15 212 -2 106 -8 204 -13
217 l-10 23 0 -24 c-1 -21 -14 -23 -17 -3 0 4 -3 14 -7 22 -3 8 -7 23 -9 33
-2 10 -7 18 -13 18 -5 -1 -9 -42 -8 -100 1 -54 -3 -104 -8 -112 -7 -11 -9 -11
-9 2 0 9 -7 22 -15 29 -20 17 -45 -9 -44 -46 1 -16 -2 -56 -7 -88 -6 -49 -5
-58 7 -51 11 7 12 6 2 -7 -7 -8 -10 -18 -6 -21 3 -4 1 -7 -5 -7 -7 0 -12 14
-12 32 0 39 -6 34 -13 -11 -3 -18 -10 -38 -16 -44 -6 -6 -11 -33 -11 -60 0
-29 -4 -46 -10 -42 -6 4 -10 -7 -10 -25 0 -17 -4 -39 -9 -48 -5 -10 -10 -37
-12 -62 -1 -25 -7 -54 -13 -65 -9 -19 -10 -19 -17 5 -6 21 -7 19 -9 -15 -1
-22 -7 -71 -14 -110 -10 -57 -16 -71 -32 -73 -17 -2 -19 -11 -19 -78 1 -71 0
-75 -20 -70 -36 9 -45 -7 -47 -81 -2 -39 -5 -71 -8 -71 -24 2 -30 -6 -30 -38
0 -46 -20 -124 -32 -124 -5 0 -6 -5 -3 -10 3 -6 1 -10 -4 -10 -6 0 -11 -21
-11 -50 0 -27 -4 -50 -9 -50 -5 0 -9 -16 -9 -35 0 -20 -6 -42 -12 -50 -7 -8
-9 -15 -5 -15 4 0 2 -7 -5 -15 -7 -9 -14 -38 -16 -66 -4 -75 -10 -87 -40 -81
-13 2 -29 13 -35 23 -5 11 -17 19 -27 19 -9 0 -23 9 -30 20 -7 11 -19 20 -27
20 -8 0 -15 5 -15 10 0 6 -8 14 -19 18 -30 11 -87 67 -93 90 -5 17 0 22 22 27
41 9 51 27 51 87 0 221 -12 869 -16 893 -6 38 -42 64 -52 39 -3 -9 -2 -229 4
-488 12 -533 13 -523 -55 -512 -21 4 -49 11 -63 17 l-26 10 -6 177 c-17 441
-20 789 -9 796 19 11 14 40 -8 54 -11 7 -20 23 -20 36 0 36 -29 54 -100 61
-36 3 -80 11 -98 17 -45 14 -54 3 -50 -63 3 -48 6 -54 26 -57 14 -2 33 5 45
16 26 23 80 43 93 33 5 -3 10 -133 11 -291 1 -157 5 -385 9 -507 l6 -221 -32
-17 c-18 -9 -43 -15 -56 -12 -49 9 -57 -10 -49 -118 7 -95 9 -100 41 -129 18
-17 40 -49 47 -70 13 -37 17 -41 67 -52 30 -7 103 -15 162 -19 141 -9 143 -11
146 -161 l3 -109 38 -35 39 -35 10 -140 c7 -86 7 -144 2 -149 -19 -19 -381 6
-416 29 -12 8 -50 45 -84 83 l-62 69 -76 7 c-101 8 -149 22 -163 48 -6 11 -13
70 -15 131 -3 71 -9 116 -17 124 -6 6 -50 17 -97 22 -47 6 -100 14 -118 17
-34 5 -72 38 -72 62 0 8 -9 25 -20 39 -11 14 -20 41 -20 59 0 25 -7 38 -25 50
-13 9 -27 24 -30 34 -5 16 -41 60 -100 121 -14 15 -25 29 -25 33 0 5 -68 80
-134 147 -14 15 -26 32 -26 39 0 23 -63 71 -104 79 -23 5 -54 15 -69 24 -21
11 -36 12 -60 5 -21 -6 -41 -6 -59 1 -31 11 -31 12 -28 146 1 58 -3 76 -19 97
-12 14 -21 39 -21 56 0 16 -4 42 -9 58 -6 16 -12 45 -14 65 -7 54 -13 59 -73
59 -45 0 -59 4 -79 25 -14 13 -25 35 -25 49 0 18 -10 29 -37 43 -36 19 -38 23
-41 72 -3 48 -6 53 -42 76 -47 30 -52 37 -52 82 0 24 8 43 26 62 33 34 33 58
2 73 -22 10 -32 25 -50 81 -3 10 -12 17 -19 14 -9 -3 -12 -77 -12 -326 0 -178
3 -325 6 -327 4 -2 12 3 19 11 20 24 56 18 80 -12 12 -16 71 -104 132 -198 60
-93 190 -288 287 -432 238 -355 221 -321 221 -428 0 -125 19 -402 34 -512 l14
-91 101 -130 c97 -126 118 -149 126 -140 2 2 -5 79 -17 170 l-21 167 33 37
c32 37 33 38 27 117 -6 86 2 121 28 131 28 10 59 -15 161 -129 263 -298 356
-393 465 -477 41 -31 128 -102 194 -158 197 -168 420 -348 492 -400 75 -54
129 -94 172 -127 16 -13 34 -23 40 -23 6 0 11 -4 11 -10 0 -5 27 -25 61 -45
33 -19 68 -42 76 -50 8 -8 18 -15 23 -15 5 0 16 -8 26 -17 37 -37 137 -113
149 -113 7 0 32 -9 56 -20 24 -11 59 -20 78 -20 34 0 99 32 114 57 4 7 13 13
20 13 7 0 31 17 54 38 66 59 135 115 173 141 19 13 37 27 40 30 3 4 46 40 95
80 50 41 94 80 98 87 4 8 14 14 22 14 8 0 18 6 22 13 4 6 67 64 138 128 134
119 311 303 427 444 91 110 106 123 153 127 40 3 40 3 50 58 9 45 14 55 34 60
20 4 28 19 48 85 39 126 36 123 88 131 50 7 68 26 80 80 6 32 33 51 99 70 26
8 31 16 40 64 10 50 14 56 43 64 20 6 34 18 37 32 4 15 15 24 33 26 40 5 64
46 68 114 3 62 12 94 26 94 5 0 12 14 17 32 10 39 28 47 35 16 4 -13 16 -27
29 -33 19 -8 24 -19 26 -60 2 -27 9 -57 17 -65 18 -21 23 -52 7 -57 -8 -3 -11
4 -10 19 4 34 -43 37 -91 5 -33 -22 -38 -31 -49 -90 -7 -35 -12 -73 -12 -84 0
-11 -9 -28 -20 -38 -11 -10 -20 -28 -20 -39 0 -17 -2 -18 -10 -6 -7 12 -16 12
-62 1 -82 -21 -94 -33 -107 -104 -7 -34 -14 -71 -17 -82 -2 -11 -7 -47 -10
-80 -7 -69 8 -95 44 -76 34 18 48 73 51 188 1 48 3 52 32 62 18 6 35 11 40 11
4 0 5 -39 2 -87 -5 -81 -4 -86 13 -79 36 15 82 18 100 8 12 -7 27 -6 48 3 17
7 51 20 77 29 36 13 47 23 56 49 10 26 24 100 28 142 0 6 8 27 17 48 17 36 48
57 88 57 28 0 31 -24 14 -128 -20 -123 -32 -172 -44 -172 -5 0 -25 -13 -43
-30 -19 -16 -42 -30 -51 -30 -9 0 -19 -8 -22 -17 -13 -44 -38 -82 -60 -92 -13
-6 -29 -22 -34 -35 -5 -13 -19 -27 -30 -31 -25 -8 -90 2 -90 14 0 4 -19 27
-41 50 -38 38 -42 40 -54 24 -14 -19 -26 -88 -19 -107 6 -16 60 -47 68 -39 3
3 6 3 6 0 0 -12 -34 -47 -47 -47 -6 0 -30 -29 -53 -64 -37 -56 -45 -64 -63
-57 -24 10 -25 32 -6 131 6 30 9 80 7 110 l-3 55 -35 -3 c-19 -2 -42 -11 -52
-20 -17 -18 -45 -161 -50 -262 l-3 -55 48 2 c56 3 59 -7 18 -55 -23 -27 -37
-34 -74 -36 -52 -4 -67 -11 -67 -32 0 -25 -33 -118 -46 -132 -7 -6 -21 -12
-31 -12 -22 -1 -68 -40 -77 -66 -6 -20 -59 -76 -133 -142 -22 -20 -47 -43 -55
-51 -66 -67 -95 -91 -108 -88 -18 3 -18 5 5 167 26 183 30 300 11 325 -14 19
-17 18 -81 -45 -43 -42 -69 -77 -75 -100 -5 -19 -14 -105 -20 -190 -15 -210
-47 -525 -70 -697 -24 -171 -23 -158 -5 -143 8 7 15 19 15 26 0 8 11 14 26 14
18 0 28 6 31 20 4 15 12 20 32 18 20 -2 27 2 29 19 2 14 11 23 25 25 14 2 23
11 25 26 2 12 12 27 23 32 11 6 19 21 19 35 0 22 4 25 35 25 25 0 35 4 35 16
0 9 9 18 19 21 12 3 21 15 23 32 2 18 10 27 25 29 15 2 24 13 28 33 5 20 13
29 26 29 12 0 19 7 19 20 0 13 7 20 20 20 19 0 26 18 32 95 2 22 8 30 23 30
14 0 21 8 23 27 2 16 11 30 22 33 12 4 20 17 22 38 3 29 6 32 41 35 31 3 37 7
37 27 0 17 6 25 22 27 14 2 24 12 28 28 5 20 11 24 33 22 23 -3 28 1 33 27 4
20 13 31 27 33 14 2 24 15 32 43 10 37 14 40 45 40 29 0 35 4 36 22 1 27 30
73 47 74 6 1 18 2 26 3 8 0 18 15 23 33 6 25 14 32 36 35 26 3 27 4 24 61 -3
57 -2 59 27 70 16 6 32 20 35 31 3 12 19 29 36 38 21 12 30 25 30 43 0 18 7
28 25 35 18 7 25 17 25 36 0 24 21 58 69 109 10 11 21 28 24 38 4 9 18 22 33
27 22 9 25 14 19 39 -7 34 15 85 45 104 11 6 20 22 20 34 0 34 19 76 46 101
13 13 24 31 24 40 0 10 7 27 15 38 8 10 15 29 15 41 0 13 9 28 20 35 12 8 20
24 20 40 0 18 8 33 25 44 14 9 25 25 25 35 0 10 9 24 20 31 16 10 20 24 20 63
0 106 11 152 37 164 25 11 25 13 22 114 l-4 101 28 14 c15 8 32 24 37 37 5 12
20 25 34 29 23 6 26 11 26 51 0 42 2 46 29 51 23 5 31 13 36 35 5 23 12 29 32
29 18 0 28 8 36 30 6 17 15 30 20 30 5 0 8 57 7 128 -2 170 -3 161 25 174 14
6 25 17 25 25 0 8 13 21 29 31 32 18 42 47 36 107 -3 22 -9 162 -16 310 -10
236 -13 272 -29 285 -9 8 -19 22 -22 30 -3 9 -30 22 -59 29 -60 15 -69 23 -69
64 0 16 -10 36 -25 49 -19 17 -25 31 -25 64 0 43 11 59 44 65 33 6 31 29 -2
29 -41 0 -49 14 -57 98 -7 61 -5 75 10 92 9 10 14 27 11 37 -3 10 -8 56 -11
103 -3 47 -7 114 -10 150 -4 48 -1 70 10 85 15 19 15 19 35 0 17 -18 20 -39
26 -190 3 -94 10 -186 15 -205 5 -22 6 19 3 105 -6 195 -15 308 -24 320 -4 6
-10 84 -14 175 -16 412 -16 419 -40 411 -26 -10 -62 2 -74 26 -5 10 -15 95
-21 188 -11 156 -14 171 -34 187 -56 44 -57 45 -57 121 0 43 -5 80 -12 89 -9
11 -42 20 -96 27 -46 6 -88 13 -93 16 -5 4 -9 21 -9 39 0 20 -8 40 -20 51 -11
10 -20 25 -20 33 0 9 -9 25 -20 37 -16 17 -22 44 -30 121 -5 54 -10 109 -10
121 0 26 -19 38 -77 48 -35 6 -43 4 -43 -9 0 -9 15 -22 34 -30 38 -16 38 -18
51 -225 5 -89 10 -97 58 -108 16 -3 36 -17 45 -31 19 -29 34 -152 21 -168 -5
-7 -7 -29 -5 -50 5 -40 11 -144 21 -409 4 -93 12 -166 21 -192 8 -23 14 -48
13 -55 -3 -24 1 -39 9 -34 5 3 9 -1 9 -9 0 -8 -8 -15 -18 -15 -10 0 -23 -9
-29 -20 -7 -13 -21 -20 -41 -20 -48 0 -70 16 -69 53 1 28 -5 97 -14 151 -4 27
-34 46 -74 46 -44 0 -72 16 -72 41 0 11 -13 32 -30 47 l-30 28 -20 264 c-11
146 -23 277 -26 292 -4 22 -13 29 -42 34 -201 36 -276 54 -283 65 -5 8 -9 26
-9 40 0 101 -23 385 -31 389 -17 11 -238 42 -254 36 -13 -5 -15 -19 -13 -73 2
-45 -1 -68 -9 -70 -12 -4 -268 32 -305 43 -10 3 -18 17 -20 37 -2 24 -8 33
-26 35 -14 2 -27 15 -37 38 -8 19 -20 34 -28 34 -8 0 -18 11 -21 25 -8 31 -38
47 -79 43 l-32 -3 3 -215 c1 -118 5 -225 8 -238 4 -21 9 -23 67 -20 l62 3 5
39 5 40 60 -3 c33 -1 63 -8 67 -14 4 -7 8 -31 8 -54 0 -49 -1 -49 130 -58 52
-4 98 -12 102 -19 4 -6 8 -56 8 -110 l0 -99 -62 6 c-35 4 -91 9 -125 13 l-63
6 0 -86 c0 -75 -2 -86 -17 -86 -10 0 -81 7 -158 15 -77 8 -148 15 -157 15 -16
0 -18 -10 -18 -81 l0 -81 -75 4 c-42 3 -81 10 -87 16 -9 9 -7 12 10 12 12 0
22 5 22 10 0 6 -6 9 -12 8 -8 -2 -14 9 -16 25 -3 25 -1 28 16 23 16 -5 19 -2
15 16 -2 13 3 32 12 43 8 11 15 16 14 10 -3 -25 2 -58 8 -52 3 4 6 41 5 81 -1
42 2 77 8 81 5 3 10 -3 10 -14 0 -12 6 -21 14 -21 16 0 38 138 23 147 -11 7 1
55 16 65 8 5 6 8 -6 8 -10 0 -16 4 -13 8 3 5 -47 14 -112 21 -64 7 -123 15
-129 17 -9 2 -13 30 -14 91 0 48 -2 104 -3 123 -2 19 -5 204 -7 410 l-4 375
135 0 134 0 1 80 0 80 104 -2 c99 -2 492 -38 538 -50 19 -4 51 -63 46 -84 -1
-3 3 -6 10 -7 7 0 22 -4 33 -7 19 -6 22 -3 20 19 0 14 -6 26 -13 26 -6 0 -14
4 -17 8 -2 4 8 8 22 7 16 0 26 5 24 13 -1 6 4 12 12 12 8 0 17 8 19 18 3 9 5
4 6 -13 1 -23 3 -27 11 -15 5 8 10 11 10 6 0 -5 8 -2 17 5 9 8 14 9 10 3 -4
-7 10 -11 40 -12 31 0 51 -6 59 -16 15 -21 24 -20 25 2 2 38 10 -11 28 -166
19 -167 26 -187 66 -194 18 -3 20 3 20 62 0 129 -22 353 -36 364 -8 6 -138 26
-168 26 -18 0 -31 5 -32 13 -2 42 -11 93 -17 99 -4 4 -52 15 -107 23 -162 25
-175 31 -175 66 0 17 -5 40 -12 52 -6 12 -14 35 -18 52 -6 29 -7 30 -115 48
-61 10 -121 20 -135 22 -71 12 -163 17 -158 9z m-132 -1588 c0 -2 -7 -7 -16
-10 -8 -3 -12 -2 -9 4 6 10 25 14 25 6z m915 -277 c5 -5 12 -67 15 -137 l5
-127 157 -15 c86 -9 160 -18 163 -22 3 -3 9 -34 13 -69 6 -53 10 -64 27 -67
32 -6 42 -19 49 -62 6 -38 7 -39 54 -45 88 -12 89 -13 97 -107 3 -46 5 -126 3
-178 -2 -79 -6 -95 -20 -98 -9 -2 -26 6 -36 16 -16 16 -21 40 -27 126 -7 97
-15 130 -28 109 -3 -5 -1 -127 4 -271 6 -165 6 -270 0 -280 -7 -13 -24 -17
-69 -17 -33 0 -58 3 -56 6 5 8 -92 26 -216 39 -155 16 -235 52 -228 102 3 23
4 23 151 21 l147 -1 0 29 c0 28 1 29 51 29 l50 0 -6 83 c-3 45 -10 143 -15
216 -6 74 -10 163 -10 198 0 60 -15 88 -22 41 -2 -16 -11 -24 -29 -26 -20 -2
-28 -10 -32 -32 -5 -22 -12 -29 -34 -32 -22 -2 -29 -9 -33 -33 -4 -24 -11 -31
-33 -33 -21 -3 -27 -9 -27 -26 0 -26 -15 -42 -45 -48 -13 -2 -22 -14 -25 -33
-4 -24 -11 -31 -33 -33 -19 -2 -27 -9 -27 -22 0 -27 -26 -49 -50 -43 -16 4
-21 -1 -26 -26 -5 -24 -12 -31 -30 -31 -17 0 -23 -6 -26 -27 -2 -22 -9 -29
-33 -33 -22 -4 -31 -11 -33 -29 -2 -13 -12 -26 -23 -28 -11 -3 -22 -16 -25
-30 -7 -27 -3 -27 -206 -7 l-57 6 -3 36 c-3 34 -6 37 -35 40 -29 3 -33 7 -33
33 0 25 -6 33 -35 45 -27 11 -35 20 -35 39 0 20 -6 27 -30 32 -23 4 -32 13
-38 37 -6 23 -15 32 -34 34 -21 3 -27 10 -32 37 -5 25 -13 36 -30 41 -18 4
-26 15 -31 40 -6 35 -7 35 -53 32 l-47 -3 1 -243 c0 -191 -2 -242 -12 -240 -7
2 -19 -5 -27 -16 -12 -16 -13 -14 -9 18 4 36 16 47 25 24 3 -8 6 -6 6 5 1 12
-7 17 -25 17 -22 0 -24 3 -15 14 10 12 8 13 -11 8 -22 -5 -22 -5 -6 12 14 13
16 22 8 37 -8 15 -7 19 5 19 17 0 20 16 4 25 -6 4 -10 26 -9 49 4 87 0 137
-10 131 -6 -4 -9 13 -9 42 2 99 -1 134 -11 128 -5 -3 -10 1 -10 10 0 9 4 14 8
11 5 -3 5 16 1 42 -4 26 -5 50 -3 54 2 4 0 9 -6 13 -9 5 -15 -23 -11 -48 1 -5
-4 -7 -11 -5 -26 9 -19 158 8 158 8 0 14 -6 15 -12 0 -10 2 -10 6 0 2 6 11 12
19 12 10 0 14 14 14 51 0 31 4 48 10 44 6 -3 7 -17 4 -30 -3 -12 -1 -26 5 -29
7 -5 11 9 11 39 0 39 -3 46 -16 41 -12 -5 -15 -2 -10 10 3 8 6 20 6 25 0 5 8
2 18 -7 17 -14 19 -34 21 -167 1 -83 4 -155 7 -159 3 -4 30 -8 60 -8 l54 0 0
75 c0 64 3 75 18 77 9 0 22 2 29 2 22 2 26 16 24 92 l-2 76 38 -4 38 -3 3 43
3 42 49 0 c47 0 50 -1 58 -32 7 -30 13 -34 56 -40 26 -3 122 -8 213 -10 l165
-3 -1 109 c-1 61 2 112 7 115 16 10 196 1 207 -10z m-970 1 c3 -5 1 -10 -4
-10 -6 0 -11 5 -11 10 0 6 2 10 4 10 3 0 8 -4 11 -10z m-988 -346 c-3 -3 -12
-4 -19 -1 -8 3 -5 6 6 6 11 1 17 -2 13 -5z m828 -208 c0 -24 -3 -39 -7 -33
-10 16 -10 77 0 77 4 0 7 -20 7 -44z m-1265 -439 c0 -2 -9 -12 -20 -22 -17
-16 -20 -16 -20 -2 0 8 8 18 18 20 9 3 18 5 20 6 1 0 2 -1 2 -2z m3108 -219
c1 -201 -5 -257 -23 -228 -4 6 -9 35 -12 63 -2 29 -6 72 -8 97 -3 38 -7 45
-30 51 -32 9 -34 5 -37 -86 -3 -68 -4 -70 -30 -73 -40 -5 -46 19 -54 203 l-7
157 89 -4 c86 -3 89 -2 92 20 2 12 7 20 11 18 4 -3 8 -101 9 -218z m-1539 -13
l-2 -125 -26 -1 c-14 0 -46 -1 -71 -2 l-44 -2 -8 -45 c-5 -25 -10 -63 -12 -85
-2 -21 -9 -41 -16 -43 -9 -3 -11 2 -7 18 8 31 -10 73 -28 66 -8 -3 -17 -1 -20
4 -4 6 2 10 12 10 16 0 18 13 22 128 2 70 4 141 5 159 1 17 4 29 9 26 4 -2 7
1 7 6 0 7 34 11 91 11 l90 0 -2 -125z m-224 -103 c-4 -30 -9 -51 -12 -48 -10
10 -15 140 -7 186 l7 45 9 -65 c5 -36 6 -89 3 -118z m715 114 c0 -13 -6 -26
-14 -29 -16 -7 -30 19 -15 28 5 4 7 11 4 16 -4 5 1 9 9 9 10 0 16 -9 16 -24z
m-60 -5 c0 -9 -24 -21 -41 -21 -21 0 -7 26 16 28 14 1 25 -2 25 -7z m830 -51
c0 -5 -2 -10 -4 -10 -3 0 -8 5 -11 10 -3 6 -1 10 4 10 6 0 11 -4 11 -10z
m-1483 -142 c-3 -8 -6 -5 -6 6 -1 11 2 17 5 13 3 -3 4 -12 1 -19z m1058 -103
c99 -7 252 -19 340 -25 195 -14 209 -18 200 -63 -9 -42 -20 -54 -55 -62 -18
-4 -30 -14 -34 -29 -6 -24 -51 -41 -79 -30 -8 3 -20 -2 -27 -11 -9 -11 -31
-15 -76 -15 -34 0 -66 -4 -69 -10 -3 -5 -19 -10 -36 -10 -19 0 -29 -5 -29 -15
0 -22 -33 -35 -74 -28 -34 5 -36 4 -36 -21 l0 -26 -125 0 c-118 0 -125 -1
-125 -20 0 -18 -7 -20 -70 -20 l-70 0 0 -30 0 -30 -99 0 c-108 0 -131 -5 -131
-26 0 -11 -18 -14 -80 -14 -45 0 -89 -5 -100 -12 -13 -9 -27 -9 -47 -2 -24 8
-28 16 -31 52 -3 37 -1 42 17 42 18 0 21 6 21 44 0 34 4 46 18 50 11 4 18 15
18 29 -1 16 5 22 19 22 14 0 21 8 23 28 3 21 9 27 27 27 16 0 28 9 37 28 9 18
22 28 42 30 18 2 30 11 33 23 4 13 17 21 44 25 31 5 39 11 44 35 5 24 12 28
43 31 33 3 37 7 40 32 l4 29 121 -7 c67 -4 203 -13 302 -21z m-1118 -197 c-3
-7 -5 -2 -5 12 0 14 2 19 5 13 2 -7 2 -19 0 -25z m1713 -172 c0 -2 -7 -7 -16
-10 -8 -3 -12 -2 -9 4 6 10 25 14 25 6z m35 -116 c-3 -5 -12 -10 -18 -10 -7 0
-6 4 3 10 19 12 23 12 15 0z m-217 -512 l3 -67 -33 -5 c-37 -7 -79 -3 -96 8
-13 8 -17 118 -5 130 4 4 34 6 68 4 l60 -3 3 -67z m-2361 0 c-3 -7 -5 -2 -5
12 0 14 2 19 5 13 2 -7 2 -19 0 -25z m2081 -170 l3 -68 -51 0 -50 0 0 71 0 70
48 -3 47 -3 3 -67z m127 -418 c0 -43 -1 -45 -32 -48 l-33 -3 0 51 0 51 33 -3
c31 -3 32 -5 32 -48z m130 -113 c4 -19 5 -47 3 -63 -3 -25 -9 -30 -45 -38 -62
-13 -73 -5 -73 53 0 75 5 81 61 81 47 0 48 -1 54 -33z m-335 -238 c0 -8 4 -8
13 -2 18 15 72 9 72 -8 0 -10 -15 -15 -52 -17 -48 -3 -53 -1 -53 17 0 12 5 21
10 21 6 0 10 -5 10 -11z m470 -44 c-7 -8 -16 -15 -21 -15 -13 0 -11 24 3 38
18 18 35 -3 18 -23z m80 25 c0 -5 -5 -10 -11 -10 -5 0 -7 5 -4 10 3 6 8 10 11
10 2 0 4 -4 4 -10z m-2853 -36 c-3 -3 -12 -4 -19 -1 -8 3 -5 6 6 6 11 1 17 -2
13 -5z m3132 -176 c11 -29 -4 -58 -28 -58 -22 0 -31 27 -20 58 11 28 37 28 48
0z m-272 -24 c-3 -3 -12 -4 -19 -1 -8 3 -5 6 6 6 11 1 17 -2 13 -5z m-71 -79
c1 -8 -2 -15 -6 -15 -5 0 -8 9 -7 20 1 21 10 18 13 -5z m-941 -295 c-14 -15
-15 -20 -4 -21 8 0 2 -5 -13 -11 -16 -5 -28 -14 -28 -20 0 -7 -4 -7 -12 0 -7
5 -33 10 -58 11 -25 0 -53 1 -63 2 -24 3 -6 20 24 22 13 0 27 5 31 11 3 5 32
11 63 12 31 1 59 5 63 8 15 16 13 3 -3 -14z m-1751 -31 c19 -16 38 -39 41 -49
3 -10 19 -23 34 -28 16 -6 37 -24 47 -41 10 -16 31 -35 46 -42 16 -6 42 -29
59 -50 17 -22 37 -39 45 -39 7 0 22 -17 33 -39 22 -43 36 -51 87 -51 21 0 33
-4 29 -10 -3 -5 -28 -10 -55 -10 -46 0 -53 -4 -102 -52 -29 -28 -60 -66 -68
-82 -23 -48 -50 -45 -109 13 -28 28 -51 54 -51 58 0 14 -59 35 -80 28 -12 -4
-37 -22 -56 -42 -59 -59 -69 -47 -72 96 -3 136 1 148 51 153 l32 3 5 98 c4 72
9 100 20 107 22 14 26 13 64 -21z m1675 -45 c17 -4 31 -10 31 -15 0 -5 -5 -8
-12 -6 -6 1 -20 -14 -31 -34 -11 -20 -30 -42 -43 -48 -14 -6 -24 -19 -24 -31
0 -20 -6 -22 -85 -24 -16 -1 -33 4 -37 9 -5 6 -8 5 -8 -2 0 -9 -19 -13 -62
-12 -62 1 -62 2 -23 10 22 5 63 11 90 14 28 2 53 4 58 4 4 1 7 8 7 16 0 10 -9
15 -27 14 -16 -1 -36 2 -45 6 -11 4 -18 3 -18 -4 0 -6 -4 -11 -10 -11 -13 0
-13 27 0 35 5 3 19 1 31 -6 17 -9 23 -8 30 2 4 7 5 17 3 21 -5 8 9 12 36 9 11
-1 12 0 2 7 -10 7 -9 12 5 24 28 25 76 33 132 22z m-144 -23 c-3 -6 -14 -9
-25 -8 -24 2 -15 17 11 17 11 0 18 -4 14 -9z m-341 -153 c5 -32 10 -38 31 -38
25 0 25 -1 25 -84 0 -47 -5 -88 -10 -91 -13 -8 -73 42 -86 70 -7 16 -19 20
-59 20 -42 0 -52 -3 -60 -22 -6 -14 -19 -23 -32 -23 -16 0 -25 -8 -29 -25 -3
-13 -14 -27 -24 -30 -10 -3 -30 -22 -45 -41 -33 -43 -61 -42 -85 3 -29 54 -97
112 -147 125 l-46 11 34 11 c25 8 35 19 41 44 6 21 15 32 27 32 10 0 26 9 35
19 20 22 55 31 82 20 15 -6 13 -8 -11 -8 -17 -1 -36 -6 -43 -13 -24 -24 -7
-98 23 -98 8 0 20 -12 27 -27 21 -45 85 -44 106 1 6 13 20 27 31 31 12 3 21
17 23 33 2 18 10 28 27 32 13 3 28 12 32 20 15 28 22 55 20 72 -3 22 46 28 81
8 19 -10 28 -25 32 -52z"/>
<path d="M5353 6605 c0 -8 4 -12 9 -9 4 3 8 9 8 15 0 5 -4 9 -8 9 -5 0 -9 -7
-9 -15z"/>
<path d="M5665 6610 c-4 -6 -4 -42 0 -80 7 -73 13 -80 77 -80 25 0 27 -3 30
-52 l3 -53 73 -3 73 -3 -3 58 -3 58 -62 3 -63 3 0 74 0 75 -44 0 c-24 0 -51 3
-59 6 -8 3 -18 0 -22 -6z"/>
<path d="M5400 6505 c0 -5 5 -17 10 -25 5 -8 10 -10 10 -5 0 6 -5 17 -10 25
-5 8 -10 11 -10 5z"/>
<path d="M5422 6270 c0 -14 2 -19 5 -12 2 6 2 18 0 25 -3 6 -5 1 -5 -13z"/>
<path d="M4363 2633 c-16 -6 -17 -55 -1 -71 7 -7 20 -12 29 -12 10 0 27 -13
39 -30 28 -39 42 -38 74 4 28 37 34 77 14 93 -15 12 -136 24 -155 16z"/>
<path d="M5883 2724 c-3 -8 -1 -20 6 -27 8 -8 11 -4 11 16 0 30 -7 35 -17 11z"/>
<path d="M3310 8840 c-8 -5 -27 -10 -42 -10 -18 0 -28 -5 -28 -15 0 -17 45
-21 55 -5 4 6 21 17 38 24 24 11 27 15 12 15 -11 0 -27 -4 -35 -9z"/>
<path d="M3140 8772 c-25 -2 -38 -9 -45 -25 -6 -13 -22 -24 -38 -27 -16 -3
-33 -15 -40 -30 -7 -14 -26 -28 -44 -33 -24 -7 -33 -16 -35 -35 -2 -20 -11
-29 -35 -36 -25 -7 -33 -14 -33 -33 0 -16 -9 -27 -27 -35 -16 -7 -29 -13 -31
-14 -1 -1 -7 -15 -12 -33 -7 -27 -6 -31 10 -31 12 0 20 8 22 23 2 15 13 25 35
31 24 7 33 16 35 35 2 20 12 29 38 37 23 8 37 19 40 35 3 13 16 29 28 35 12 6
33 23 46 37 14 15 32 27 40 27 8 0 20 9 26 20 6 11 23 22 38 26 52 11 62 15
62 25 0 5 -10 8 -22 6 -13 -1 -39 -3 -58 -5z"/>
<path d="M2730 8410 c0 -38 26 -41 40 -4 13 34 13 34 -15 34 -21 0 -25 -5 -25
-30z"/>
<path d="M2656 8358 c-12 -35 -11 -88 1 -88 30 0 50 92 20 98 -9 2 -19 -2 -21
-10z"/>
<path d="M7106 8304 c-12 -32 -6 -71 16 -90 l21 -19 -6 40 c-4 22 -7 50 -7 63
0 25 -15 30 -24 6z"/>
<path d="M5986 8193 c-4 -49 -3 -101 2 -118 l8 -30 114 -7 c62 -4 118 -12 124
-18 5 -5 13 -42 17 -81 5 -39 10 -73 12 -75 2 -2 62 -11 133 -19 71 -8 148
-18 172 -21 25 -4 42 -2 42 4 0 10 -71 31 -185 55 l-60 12 -6 72 c-4 39 -9 75
-12 80 -3 5 -29 15 -56 23 -43 11 -51 17 -51 37 0 28 -20 38 -110 52 -72 12
-90 27 -90 77 0 29 -13 44 -40 44 -4 0 -11 -39 -14 -87z"/>
<path d="M2594 8245 c-4 -8 -3 -22 0 -31 4 -10 -7 -27 -28 -47 -19 -18 -36
-43 -38 -57 -2 -16 -11 -26 -28 -30 -21 -5 -25 -12 -26 -42 -1 -19 -4 -40 -8
-47 -4 -6 -1 -11 8 -11 12 0 16 10 16 35 0 26 6 39 25 51 14 9 25 24 25 34 0
20 26 45 58 54 12 4 22 15 23 24 0 9 2 32 3 50 4 34 -19 47 -30 17z"/>
<path d="M5680 8133 c1 -53 5 -84 16 -98 15 -20 15 -20 13 0 -1 11 -1 29 0 40
1 17 3 18 11 5 8 -12 10 -12 10 5 0 15 2 17 9 6 11 -17 25 3 17 25 -4 9 -2 12
5 8 14 -8 9 68 -6 78 -5 4 -25 8 -42 8 l-33 0 0 -77z"/>
<path d="M5733 8054 c-20 -21 -16 -42 3 -22 9 9 15 21 13 26 -2 6 -9 4 -16 -4z"/>
<path d="M7260 8020 c8 -5 22 -10 30 -10 13 0 13 1 0 10 -8 5 -22 10 -30 10
-13 0 -13 -1 0 -10z"/>
<path d="M2417 7963 c-4 -3 -7 -22 -7 -42 0 -40 12 -33 28 17 9 25 8 32 -2 32
-7 0 -16 -3 -19 -7z"/>
<path d="M2376 7868 c-15 -47 -15 -78 -1 -78 11 0 15 12 15 45 0 44 -7 58 -14
33z"/>
<path d="M6668 7855 c-4 -4 -4 -13 -1 -21 7 -20 73 -19 73 1 0 8 -6 15 -12 15
-7 0 -22 3 -33 6 -11 3 -23 2 -27 -1z"/>
<path d="M7350 7820 c0 -11 6 -20 14 -20 9 0 12 7 9 20 -3 11 -9 20 -14 20 -5
0 -9 -9 -9 -20z"/>
<path d="M2317 7774 c-13 -13 -7 -44 8 -44 8 0 15 7 15 15 0 8 0 18 1 22 1 10
-16 15 -24 7z"/>
<path d="M7412 7731 c-1 -35 3 -55 14 -66 14 -13 19 -14 25 -3 9 14 2 57 -12
73 -5 5 -9 17 -9 27 0 10 -4 18 -8 18 -4 0 -9 -22 -10 -49z"/>
<path d="M2269 7658 c0 -18 -2 -71 -5 -118 -4 -58 -2 -82 4 -75 16 15 28 225
13 225 -6 0 -11 -15 -12 -32z"/>
<path d="M7501 7444 c0 -11 3 -14 6 -6 3 7 2 16 -1 19 -3 4 -6 -2 -5 -13z"/>
<path d="M2199 7428 c-9 -31 -7 -48 6 -48 9 0 15 9 15 25 0 14 -4 25 -10 25
-5 0 -10 -1 -11 -2z"/>
<path d="M2146 7333 c-3 -3 -6 -31 -6 -62 0 -50 1 -53 15 -35 24 32 16 122 -9
97z"/>
<path d="M7558 7306 c2 -19 10 -37 18 -40 7 -3 11 0 9 7 -2 7 -6 24 -9 40 -9
39 -23 34 -18 -7z"/>
<path d="M2130 7149 c0 -5 5 -7 10 -4 6 3 10 8 10 11 0 2 -4 4 -10 4 -5 0 -10
-5 -10 -11z"/>
<path d="M2097 7113 c-11 -10 -8 -93 3 -93 6 0 10 23 10 50 0 51 -1 55 -13 43z"/>
<path d="M2036 6969 c-3 -17 -6 -52 -6 -76 0 -39 2 -44 15 -33 10 9 15 32 15
76 0 67 -13 86 -24 33z"/>
<path d="M2027 6770 c-10 -36 -8 -98 2 -104 13 -9 23 64 13 99 l-8 30 -7 -25z"/>
<path d="M4688 6663 c7 -3 16 -2 19 1 4 3 -2 6 -13 5 -11 0 -14 -3 -6 -6z"/>
<path d="M2993 6600 c-15 -12 -19 -24 -16 -43 5 -27 -1 -31 -38 -28 -12 1 -15
-4 -11 -24 3 -21 0 -27 -17 -32 -17 -4 -19 -8 -9 -20 9 -11 9 -16 -3 -24 -8
-5 -20 -9 -26 -9 -8 0 -13 -13 -13 -30 0 -23 -4 -30 -20 -30 -15 0 -20 -7 -20
-25 0 -14 -9 -30 -20 -37 -11 -7 -20 -21 -20 -30 0 -10 -9 -22 -20 -28 -11 -6
-20 -21 -20 -34 0 -15 -7 -26 -20 -29 -12 -3 -20 -14 -20 -25 0 -12 -9 -27
-21 -35 -13 -10 -23 -30 -26 -56 -5 -39 -4 -41 21 -41 15 0 36 -5 47 -10 18
-10 19 -23 19 -215 0 -185 -2 -207 -18 -223 -14 -14 -47 -21 -133 -31 -63 -7
-118 -16 -123 -21 -5 -5 6 -25 27 -50 21 -22 37 -43 37 -48 0 -4 13 -15 29
-24 20 -11 33 -29 41 -56 9 -35 16 -42 53 -54 31 -10 43 -19 45 -36 2 -14 14
-28 30 -34 15 -6 38 -24 52 -40 23 -26 33 -29 110 -35 83 -6 86 -7 121 -44 24
-27 45 -39 63 -39 15 0 43 -7 64 -16 42 -17 164 -20 206 -5 21 9 25 14 17 28
-5 10 -12 26 -15 36 -4 13 -17 17 -60 17 -49 0 -54 2 -60 25 -6 22 -11 25 -56
25 -44 0 -50 3 -56 24 -5 22 -10 23 -122 30 -114 6 -118 7 -142 37 -17 20 -45
35 -89 49 -64 19 -101 43 -101 65 0 7 -7 18 -15 25 -22 18 -18 39 10 50 35 13
353 41 513 44 75 2 204 8 286 14 130 10 152 10 166 -3 9 -8 19 -13 22 -10 10
11 -5 149 -18 162 -7 8 -13 30 -12 50 1 20 -4 39 -10 41 -16 5 -15 55 0 70 9
9 10 15 2 20 -17 11 -22 35 -13 54 6 11 4 18 -6 22 -8 3 -15 17 -15 32 0 22
-3 25 -23 20 -19 -4 -26 0 -35 20 -7 14 -12 32 -12 41 0 11 -6 14 -21 10 -35
-9 -49 2 -42 34 5 28 4 30 -21 23 -24 -6 -26 -4 -26 25 0 30 -13 41 -25 21
-12 -20 -23 -9 -29 33 -7 39 -8 41 -22 23 -11 -16 -14 -17 -14 -4 0 9 -7 19
-15 22 -10 4 -15 16 -13 33 3 28 -2 30 -34 18 -15 -6 -18 -1 -18 28 0 31 -2
34 -26 29 -22 -4 -26 -1 -24 19 3 38 1 42 -15 29 -19 -16 -30 -6 -30 28 0 20
-5 27 -20 27 -16 0 -20 7 -21 35 0 19 -5 46 -11 60 -8 19 -7 30 4 47 16 23 11
29 -35 43 -20 5 -34 3 -49 -10z"/>
<path d="M2020 6516 c0 -25 5 -46 10 -46 6 0 10 18 10 39 0 22 -4 43 -10 46
-6 4 -10 -12 -10 -39z"/>
<path d="M1997 6413 c-11 -11 -8 -213 3 -213 6 0 10 43 10 110 0 110 -1 116
-13 103z"/>
<path d="M3728 6244 l-3 -99 -40 -6 c-22 -3 -34 -7 -27 -8 7 0 10 -6 7 -12 -8
-12 72 -8 94 5 19 12 9 166 -12 197 -15 21 -16 17 -19 -77z"/>
<path d="M4191 6294 c0 -11 3 -14 6 -6 3 7 2 16 -1 19 -3 4 -6 -2 -5 -13z"/>
<path d="M1940 6135 c0 -8 5 -15 10 -15 6 0 10 7 10 15 0 8 -4 15 -10 15 -5 0
-10 -7 -10 -15z"/>
<path d="M3721 5457 c6 -13 23 -28 39 -34 19 -7 30 -20 35 -41 5 -27 11 -31
43 -34 32 -3 38 -7 42 -33 4 -25 10 -31 36 -33 22 -2 35 -11 42 -28 7 -13 18
-24 26 -24 9 0 16 -12 18 -27 2 -20 9 -29 26 -31 21 -3 22 -1 22 90 0 51 -3
110 -7 132 l-6 38 -96 -2 c-128 -4 -134 -3 -128 15 8 19 -5 26 -59 31 -43 4
-43 4 -33 -19z"/>
<path d="M7723 5385 c0 -22 2 -30 4 -17 2 12 2 30 0 40 -3 9 -5 -1 -4 -23z"/>
<path d="M1891 5243 c0 -46 2 -83 7 -83 4 0 6 26 4 57 -5 101 -9 111 -11 26z"/>
<path d="M4699 5246 c-7 -8 2 -86 10 -86 9 0 8 52 -2 67 -4 6 -1 14 5 16 7 3
8 6 2 6 -6 1 -13 -1 -15 -3z"/>
<path d="M1964 5096 c-9 -24 3 -47 21 -40 19 8 19 28 0 44 -12 10 -16 9 -21
-4z"/>
<path d="M2615 5039 c-71 -5 -135 -11 -142 -13 -16 -7 -19 -297 -3 -327 10
-17 23 -19 160 -19 162 0 194 7 206 42 3 13 15 32 26 43 52 54 102 111 116
133 9 13 35 33 59 43 l44 19 -38 33 c-21 19 -54 38 -73 42 -55 12 -213 13
-355 4z"/>
<path d="M4640 5032 c0 -7 -4 -11 -8 -8 -4 2 -9 -5 -10 -18 -2 -31 43 -34 59
-4 10 18 9 20 -5 15 -9 -4 -20 1 -25 11 -7 11 -11 12 -11 4z"/>
<path d="M4537 4678 c-2 -7 -1 -22 4 -33 6 -16 8 -14 8 13 1 33 -4 41 -12 20z"/>
<path d="M2040 3247 c-7 -7 6 -175 17 -217 7 -27 14 -36 35 -38 36 -4 55 -28
68 -87 7 -28 18 -73 26 -101 8 -28 14 -67 14 -86 0 -36 12 -48 49 -48 29 0 51
-34 60 -90 9 -57 21 -70 66 -70 34 0 55 -15 55 -39 0 -9 8 -42 17 -73 15 -47
22 -58 40 -58 28 0 53 -36 53 -77 0 -17 5 -35 10 -38 6 -3 10 -16 10 -29 0
-31 29 -68 94 -120 25 -19 31 -34 41 -97 10 -72 12 -74 37 -71 20 2 32 -5 53
-32 15 -20 33 -36 40 -36 21 0 45 -29 39 -45 -4 -9 3 -18 19 -24 13 -5 27 -18
29 -29 3 -12 16 -22 29 -24 15 -2 25 -12 29 -27 4 -17 17 -28 40 -36 23 -8 36
-20 40 -35 4 -15 15 -27 30 -30 15 -4 26 -15 30 -30 4 -16 14 -26 28 -28 13
-2 22 -10 22 -22 0 -10 10 -20 24 -24 14 -3 26 -16 30 -30 4 -18 14 -26 34
-28 21 -2 28 -9 30 -30 2 -19 9 -28 21 -28 23 0 41 -19 34 -36 -4 -10 4 -14
26 -14 28 0 31 -3 31 -30 0 -27 3 -30 30 -30 20 0 32 -6 36 -17 12 -39 23 -48
64 -53 47 -5 54 -14 70 -77 10 -40 13 -43 46 -43 49 0 74 -16 74 -46 0 -19 6
-26 30 -31 20 -4 32 -13 36 -28 4 -17 15 -24 45 -29 34 -5 40 -11 45 -36 7
-30 30 -58 40 -47 3 3 -3 45 -15 94 -23 98 -57 343 -96 688 -14 127 -28 250
-31 275 -9 81 -13 88 -60 114 -51 29 -84 33 -84 12 0 -26 30 -312 41 -386 10
-66 15 -79 45 -106 21 -20 34 -41 34 -57 0 -29 -24 -52 -42 -41 -46 28 -418
326 -509 408 -25 22 -83 75 -129 116 -46 41 -117 108 -158 148 -73 71 -74 73
-68 112 5 34 4 40 -12 40 -27 0 -91 59 -185 169 -126 147 -212 264 -463 631
-110 160 -127 183 -134 177z"/>
</g>
</svg>
